PathFileType	4	(X/Y/Z) flx_2kg_3.trc																										
DataRate	CameraRate	NumFrames	NumMarkers	Units	OrigDataRate	OrigDataStartFrame	OrigNumFrames																					
100	100	54	9	mm	100	484	774																					
Frame#	Time	gu			centelbow			EpL			centpxt8			centijc7			ij			ts			aa			ai		
		X1	Y1	Z1	X2	Y2	Z2	X3	Y3	Z3	X4	Y4	Z4	X5	Y5	Z5	X6	Y6	Z6	X7	Y7	Z7	X8	Y8	Z8	X9	Y9	Z9  
483	4.83	-75.917	56.755	137.44	117.923	-11.132	274.56	118.599	20.243	281.946	-46.816	-153.158	-8.669	-46.816	31.938	-8.669	0	0	0	-151.261	11.355	48.937	-108.499	74.191	140.849	-135.996	-81.66	112.188
484	4.84	-75.604	56.271	138.181	117.284	-14.924	274.966	118.312	16.383	282.601	-46.816	-153.158	-8.669	-46.816	31.938	-8.669	0	0	0	-151.41	10.927	49.415	-108.5	72.946	141.812	-136.742	-82.573	112.091
485	4.85	-75.29	55.921	138.519	116.71	-18.286	274.95	118.06	12.952	282.813	-46.816	-153.158	-8.669	-46.816	31.938	-8.669	0	0	0	-151.456	11.038	49.184	-108.412	72.364	141.981	-137.198	-82.876	111.333
486	4.86	-74.911	55.677	138.647	116.237	-21.526	274.613	117.93	9.643	282.678	-46.816	-153.158	-8.669	-46.816	31.938	-8.669	0	0	0	-151.29	11.967	48.236	-108.197	72.716	141.388	-137.228	-82.307	109.883
487	4.87	-74.624	55.702	138.886	115.632	-24.67	274.265	117.719	6.428	282.51	-46.816	-153.158	-8.669	-46.816	31.938	-8.669	0	0	0	-151.077	12.966	47.381	-108.035	73.127	140.937	-137.242	-81.673	108.518
488	4.88	-74.518	55.654	139.835	114.636	-28.159	274.67	117.168	2.86	283.086	-46.816	-153.158	-8.669	-46.816	31.938	-8.669	0	0	0	-150.9	13.355	47.274	-107.98	72.801	141.342	-137.541	-81.706	107.86
489	4.89	-74.635	55.02	141.538	113.167	-32.428	275.954	116.174	-1.498	284.538	-46.816	-153.158	-8.669	-46.816	31.938	-8.669	0	0	0	-150.853	13.255	47.69	-108.067	71.835	142.361	-138.183	-82.294	107.654
490	4.9	-75.064	53.965	143.096	111.373	-37.011	277.069	114.838	-6.177	285.826	-46.816	-153.158	-8.669	-46.816	31.938	-8.669	0	0	0	-151.049	13.148	48.129	-108.369	70.769	143.434	-139.088	-82.932	107.384
491	4.91	-75.583	53.206	143.565	109.787	-40.887	276.865	113.647	-10.15	285.795	-46.816	-153.158	-8.669	-46.816	31.938	-8.669	0	0	0	-151.345	13.304	48.409	-108.728	69.933	144.334	-139.954	-83.328	106.875
492	4.92	-75.723	53.074	143.004	108.926	-43.728	275.36	113.118	-13.087	284.471	-46.816	-153.158	-8.669	-46.816	31.938	-8.669	0	0	0	-151.377	13.713	48.478	-108.782	69.369	144.981	-140.364	-83.465	106.103
493	4.93	-75.466	53.002	142.446	108.512	-46.442	273.775	113.014	-15.905	283.083	-46.816	-153.158	-8.669	-46.816	31.938	-8.669	0	0	0	-150.977	14.334	48.163	-108.358	69.064	145.184	-140.182	-83.366	104.942
494	4.94	-75.254	52.241	142.737	107.763	-50.084	273.193	112.595	-19.663	282.716	-46.816	-153.158	-8.669	-46.816	31.938	-8.669	0	0	0	-150.435	15.081	47.459	-107.773	68.902	144.968	-139.824	-83.123	103.396
495	4.95	-75.271	50.854	143.714	106.457	-54.584	273.491	111.637	-24.296	283.247	-46.816	-153.158	-8.669	-46.816	31.938	-8.669	0	0	0	-150.205	15.661	46.845	-107.544	68.489	144.896	-139.936	-83.07	101.912
496	4.96	-75.258	49.353	144.757	104.987	-59.328	273.926	110.51	-29.187	283.945	-46.816	-153.158	-8.669	-46.816	31.938	-8.669	0	0	0	-150.353	15.845	46.868	-107.766	67.531	145.558	-140.678	-83.461	101.001
497	4.97	-75.121	47.79	145.628	103.495	-64.284	274.158	109.346	-34.31	284.49	-46.816	-153.158	-8.669	-46.816	31.938	-8.669	0	0	0	-150.525	15.849	47.454	-108.039	66.271	146.84	-141.569	-84.07	100.573
498	4.98	-75.145	46.065	146.333	101.762	-69.47	274.161	107.913	-39.683	284.856	-46.816	-153.158	-8.669	-46.816	31.938	-8.669	0	0	0	-150.445	16.031	47.977	-108.016	65.136	148.043	-142.137	-84.515	100.007
499	4.99	-75.464	44.548	146.718	99.868	-74.214	273.755	106.267	-44.619	284.829	-46.816	-153.158	-8.669	-46.816	31.938	-8.669	0	0	0	-150.215	16.412	47.902	-107.767	64.2	148.596	-142.403	-84.754	98.794
500	5	-75.784	43.604	146.676	98.252	-77.95	272.852	104.851	-48.532	284.275	-46.816	-153.158	-8.669	-46.816	31.938	-8.669	0	0	0	-150.07	16.808	47.314	-107.589	63.282	148.607	-142.675	-84.966	97.044
501	5.01	-75.777	43.127	146.55	97.075	-80.912	271.932	103.86	-51.656	283.657	-46.816	-153.158	-8.669	-46.816	31.938	-8.669	0	0	0	-150.005	17.166	46.788	-107.593	62.307	148.711	-143.068	-85.207	95.34
502	5.02	-75.561	42.783	146.865	95.86	-83.808	271.661	102.853	-54.714	283.665	-46.816	-153.158	-8.669	-46.816	31.938	-8.669	0	0	0	-149.888	17.505	46.646	-107.686	61.278	149.251	-143.524	-85.458	94.013
503	5.03	-75.469	42.118	147.646	94.069	-87.447	271.959	101.32	-58.543	284.264	-46.816	-153.158	-8.669	-46.816	31.938	-8.669	0	0	0	-149.812	17.73	46.649	-107.885	60.117	149.946	-144.105	-85.807	92.836
504	5.04	-75.491	40.75	148.525	91.831	-92.291	272.169	99.39	-63.615	284.819	-46.816	-153.158	-8.669	-46.816	31.938	-8.669	0	0	0	-149.893	17.84	46.518	-108.228	58.854	150.473	-144.826	-86.245	91.533
505	5.05	-75.481	38.772	149.317	89.559	-97.951	272.009	97.449	-69.531	285.028	-46.816	-153.158	-8.669	-46.816	31.938	-8.669	0	0	0	-149.978	18.029	46.319	-108.561	57.699	150.893	-145.443	-86.583	90.152
506	5.06	-75.582	36.787	149.859	87.359	-103.355	271.493	95.563	-75.183	284.853	-46.816	-153.158	-8.669	-46.816	31.938	-8.669	0	0	0	-149.89	18.335	46.202	-108.736	56.692	151.368	-145.762	-86.788	88.839
507	5.07	-75.923	35.567	149.819	85.262	-107.402	270.499	93.743	-79.441	284.126	-46.816	-153.158	-8.669	-46.816	31.938	-8.669	0	0	0	-149.665	18.703	46.03	-108.786	55.783	151.76	-145.824	-86.91	87.464
508	5.08	-76.388	35.44	149.353	83.256	-109.833	269.327	91.983	-82.043	283.146	-46.816	-153.158	-8.669	-46.816	31.938	-8.669	0	0	0	-149.435	19.319	45.565	-108.824	55.163	151.823	-145.773	-86.762	85.8
509	5.09	-76.907	35.907	149.252	80.963	-111.618	268.826	89.942	-83.991	282.809	-46.816	-153.158	-8.669	-46.816	31.938	-8.669	0	0	0	-149.243	20.22	45.078	-108.907	54.855	151.841	-145.773	-86.304	84.147
510	5.1	-77.372	36.048	150.053	78.089	-114.198	269.395	87.374	-86.769	283.569	-46.816	-153.158	-8.669	-46.816	31.938	-8.669	0	0	0	-149.012	20.997	45.159	-109.006	54.45	152.422	-145.915	-85.928	83.147
511	5.11	-77.53	35.161	151.52	74.909	-118.404	270.534	84.559	-91.23	284.952	-46.816	-153.158	-8.669	-46.816	31.938	-8.669	0	0	0	-148.699	21.369	45.791	-109.063	53.72	153.528	-146.157	-85.901	82.837
512	5.12	-77.418	33.292	152.945	71.83	-123.833	271.355	81.863	-96.95	286.054	-46.816	-153.158	-8.669	-46.816	31.938	-8.669	0	0	0	-148.401	21.455	46.406	-109.088	52.846	154.544	-146.433	-86.097	82.659
513	5.13	-77.355	31.385	153.625	69.135	-128.98	271.131	79.507	-102.382	286.11	-46.816	-153.158	-8.669	-46.816	31.938	-8.669	0	0	0	-148.272	21.414	46.643	-109.17	51.982	155.094	-146.775	-86.372	82.216
514	5.14	-77.383	30.423	153.32	67.078	-132.532	269.772	77.719	-106.174	284.986	-46.816	-153.158	-8.669	-46.816	31.938	-8.669	0	0	0	-148.304	21.385	46.464	-109.3	51.221	155.154	-147.137	-86.611	81.411
515	5.15	-77.3	30.414	152.533	65.558	-134.602	268.056	76.433	-108.44	283.443	-46.816	-153.158	-8.669	-46.816	31.938	-8.669	0	0	0	-148.244	21.612	46.026	-109.292	50.786	154.913	-147.263	-86.578	80.371
516	5.16	-77.04	30.623	152.179	64.026	-136.345	267.098	75.153	-110.363	282.608	-46.816	-153.158	-8.669	-46.816	31.938	-8.669	0	0	0	-147.911	22.154	45.692	-109.045	50.73	154.769	-147.025	-86.216	79.467
517	5.17	-76.725	30.376	152.889	61.899	-138.83	267.505	73.339	-113.051	283.124	-46.816	-153.158	-8.669	-46.816	31.938	-8.669	0	0	0	-147.395	22.704	45.763	-108.673	50.727	155.034	-146.626	-85.829	79.013
518	5.18	-76.535	29.573	154.465	58.999	-142.261	268.867	70.823	-116.724	284.597	-46.816	-153.158	-8.669	-46.816	31.938	-8.669	0	0	0	-146.863	23.032	46.199	-108.3	50.508	155.665	-146.303	-85.651	78.961
519	5.19	-76.487	28.813	155.887	55.841	-145.79	269.849	68.097	-120.52	285.681	-46.816	-153.158	-8.669	-46.816	31.938	-8.669	0	0	0	-146.386	23.273	46.649	-107.962	50.198	156.3	-146.103	-85.552	78.94
520	5.2	-76.445	28.609	156.335	53.137	-148.612	269.408	65.834	-123.612	285.319	-46.816	-153.158	-8.669	-46.816	31.938	-8.669	0	0	0	-146.01	23.589	46.765	-107.699	49.954	156.592	-146.019	-85.375	78.586
521	5.21	-76.438	28.574	156.066	50.866	-151.078	267.883	63.99	-126.343	283.863	-46.816	-153.158	-8.669	-46.816	31.938	-8.669	0	0	0	-145.823	23.888	46.601	-107.623	49.675	156.604	-146.121	-85.217	77.932
522	5.22	-76.606	28.065	155.786	48.53	-153.914	266.28	62.048	-129.446	282.342	-46.816	-153.158	-8.669	-46.816	31.938	-8.669	0	0	0	-145.88	24.055	46.504	-107.819	49.24	156.694	-146.458	-85.197	77.315
523	5.23	-76.809	27.211	155.707	46.103	-156.947	265.081	59.966	-132.74	281.245	-46.816	-153.158	-8.669	-46.816	31.938	-8.669	0	0	0	-146.072	24.188	46.559	-108.151	48.769	156.934	-146.884	-85.213	76.834
524	5.24	-76.811	26.619	155.73	43.837	-159.498	264.306	57.988	-135.533	280.58	-46.816	-153.158	-8.669	-46.816	31.938	-8.669	0	0	0	-146.129	24.458	46.5	-108.285	48.464	157.027	-147.097	-85.086	76.248
525	5.25	-76.75	26.38	155.916	41.479	-161.586	263.969	55.889	-137.854	280.358	-46.816	-153.158	-8.669	-46.816	31.938	-8.669	0	0	0	-145.847	24.864	46.232	-107.998	48.306	156.879	-146.937	-84.818	75.461
526	5.26	-76.897	26.027	156.333	38.602	-163.886	263.93	53.285	-140.409	280.442	-46.816	-153.158	-8.669	-46.816	31.938	-8.669	0	0	0	-145.26	25.266	45.995	-107.396	48.099	156.764	-146.539	-84.557	74.682
527	5.27	-77.224	25.316	156.83	35.348	-166.717	263.767	50.335	-143.528	280.411	-46.816	-153.158	-8.669	-46.816	31.938	-8.669	0	0	0	-144.608	25.641	45.908	-106.806	47.787	156.838	-146.194	-84.33	74.008
528	5.28	-77.615	24.375	157.223	32.124	-169.843	263.153	47.435	-146.963	279.932	-46.816	-153.158	-8.669	-46.816	31.938	-8.669	0	0	0	-144.185	26.135	45.842	-106.554	47.541	156.975	-146.142	-83.989	73.31
529	5.29	-78.028	23.351	157.402	29.162	-172.982	262.035	44.794	-150.415	278.941	-46.816	-153.158	-8.669	-46.816	31.938	-8.669	0	0	0	-144.097	26.821	45.749	-106.729	47.478	157.112	-146.416	-83.457	72.564
530	5.3	-78.255	22.504	157.256	26.685	-175.815	260.413	42.622	-153.554	277.439	-46.816	-153.158	-8.669	-46.816	31.938	-8.669	0	0	0	-144.16	27.524	45.705	-107.105	47.473	157.301	-146.815	-82.896	71.895
531	5.31	-78.163	22.134	156.792	24.706	-178.069	258.384	40.92	-156.108	275.538	-46.816	-153.158	-8.669	-46.816	31.938	-8.669	0	0	0	-144.147	27.907	45.733	-107.371	47.2	157.537	-147.146	-82.638	71.356
532	5.32	-77.968	21.903	156.366	22.696	-180.183	256.428	39.161	-158.532	273.736	-46.816	-153.158	-8.669	-46.816	31.938	-8.669	0	0	0	-144.01	27.765	45.793	-107.394	46.415	157.758	-147.396	-82.89	70.884
533	5.33	-77.902	21.017	156.446	20.151	-183.019	255.133	36.847	-161.699	272.63	-46.816	-153.158	-8.669	-46.816	31.938	-8.669	0	0	0	-143.809	27.392	45.852	-107.219	45.37	157.935	-147.599	-83.372	70.401
534	5.34	-77.964	19.469	156.989	17.212	-186.516	254.436	34.108	-165.539	272.155	-46.816	-153.158	-8.669	-46.816	31.938	-8.669	0	0	0	-143.547	27.393	45.919	-106.918	44.657	158.102	-147.69	-83.488	69.876
535	5.35	-78.074	18.141	157.529	14.385	-189.661	253.727	31.436	-169.015	271.685	-46.816	-153.158	-8.669	-46.816	31.938	-8.669	0	0	0	-143.178	27.933	45.989	-106.532	44.467	158.277	-147.611	-83.071	69.317
536	5.36	-78.191	17.461	157.931	11.876	-191.994	252.805	29.05	-171.66	270.998	-46.816	-153.158	-8.669	-46.816	31.938	-8.669	0	0	0	-142.754	28.486	46.048	-106.159	44.306	158.455	-147.486	-82.633	68.757
